<svg xmlns="http://www.w3.org/2000/svg" viewBox="0 0 43 50" role="img" aria-labelledby="patron-logo-title">
  <title id="patron-logo-title">Patron GO</title>
  <path d="M42.398 15.125 23.764 25.882l7.946 4.583 7.778-4.49a7.946 7.946 0 0 0 2.91-10.85Z" fill="#783CBD"/>
  <path d="M35.207 7.946A7.946 7.946 0 0 0 27.261 0v21.528l7.946-4.584V7.946Z" fill="#9364CC"/>
  <path d="m18.224 34.207 7.79 4.497a7.946 7.946 0 0 0 10.854-2.908L18.224 25.032v9.175Z" fill="#62269E"/>
  <path d="m11.763 10.865-7.79 4.498a7.945 7.945 0 0 0-2.909 10.854L19.71 15.453l-7.946-4.588Z" fill="#DBC4E6"/>
  <path d="m25.228 7.124-7.78-4.485A7.946 7.946 0 0 0 6.596 5.542L25.228 16.3V7.124Z" fill="#C5A7E1"/>
  <path d="M8.254 42.054A7.946 7.946 0 0 0 16.202 50V19.911l-7.946 4.583-.002 17.56Z" fill="#5B2B82"/>
</svg>
